<svg width="38" height="38" viewBox="0 0 38 38" fill="none" xmlns="http://www.w3.org/2000/svg">
<path d="M38 19C38 8.50659 29.4934 0 19 0C8.50659 0 0 8.50659 0 19C0 29.4934 8.50659 38 19 38C29.4934 38 38 29.4934 38 19Z" fill="#5156BE" fill-opacity="0.247059"/>
<path d="M21.8132 15.0501C21.8132 17.0942 21.8132 19.1384 21.8132 21.1826C21.8006 21.3622 21.832 21.5421 21.9046 21.7067C21.9772 21.8712 22.0888 22.0153 22.2296 22.1263C23.0116 22.7922 23.5715 23.6838 23.8336 24.6804C24.0957 25.677 24.0473 26.7306 23.695 27.6986C23.3426 28.6667 22.7034 29.5024 21.8637 30.0929C21.024 30.6834 20.0244 31 19 31C17.9756 31 16.976 30.6834 16.1363 30.0929C15.2966 29.5024 14.6574 28.6667 14.305 27.6986C13.9527 26.7306 13.9043 25.677 14.1664 24.6804C14.4285 23.6838 14.9884 22.7922 15.7704 22.1263C15.9108 22.0204 16.0242 21.8825 16.1013 21.7238C16.1785 21.5652 16.2171 21.3905 16.214 21.2139C16.1984 17.089 16.1984 12.9641 16.214 8.83922C16.2109 8.46947 16.2803 8.10273 16.418 7.75994C16.5558 7.41715 16.7593 7.10503 17.0169 6.84139C17.2745 6.57775 17.5812 6.36777 17.9195 6.22342C18.2577 6.07907 18.6209 6.00318 18.9883 6.0001C19.3557 5.99701 19.7201 6.06679 20.0607 6.20543C20.4013 6.34408 20.7115 6.54889 20.9734 6.80816C21.2354 7.06744 21.444 7.3761 21.5874 7.71653C21.7309 8.05695 21.8063 8.42248 21.8093 8.79223C21.8249 10.8795 21.8132 12.9667 21.8132 15.0501ZM20.393 15.4769C20.393 13.2643 20.393 11.0479 20.393 8.81964C20.403 8.63442 20.3757 8.44908 20.3128 8.27473C20.2499 8.10037 20.1527 7.94057 20.027 7.80492C19.9013 7.66927 19.7497 7.56054 19.5812 7.48526C19.4128 7.40998 19.231 7.36968 19.0467 7.36679C18.8605 7.35509 18.674 7.38292 18.4991 7.44847C18.3243 7.51402 18.1652 7.61583 18.032 7.74728C17.8988 7.87874 17.7946 8.03691 17.726 8.21154C17.6575 8.38616 17.6262 8.57333 17.6342 8.7609C17.5914 11.7488 17.5953 14.7407 17.5681 17.7286C17.5681 19.1071 17.5681 20.4973 17.6265 21.8796C17.6537 22.0925 17.614 22.3087 17.5128 22.4977C17.4115 22.6867 17.254 22.8389 17.0623 22.933C16.4036 23.3407 15.8976 23.9564 15.6231 24.6839C15.3486 25.4114 15.321 26.2099 15.5447 26.9548C15.6994 27.5195 15.9882 28.038 16.3861 28.4655C16.7841 28.893 17.2793 29.2167 17.8292 29.4089C18.3791 29.601 18.9671 29.6557 19.5427 29.5684C20.1182 29.481 20.664 29.2542 21.1332 28.9074C21.6023 28.5606 21.9806 28.1042 22.2356 27.5776C22.4906 27.051 22.6145 26.4699 22.5968 25.8844C22.5791 25.2989 22.4203 24.7264 22.134 24.2164C21.8477 23.7064 21.4425 23.274 20.9533 22.9565C20.7575 22.8544 20.5969 22.6949 20.4928 22.4993C20.3886 22.3036 20.3457 22.0807 20.3696 21.86C20.4047 19.7336 20.393 17.6072 20.393 15.4769ZM18.0934 18.1398H19.9027C19.9027 17.3801 19.9027 9.67726 19.9027 8.91755C19.8872 8.29098 19.5642 7.89938 19.0467 7.89938C18.5292 7.89938 18.1479 8.25182 18.0973 8.9058C18.0895 9.05842 18.0895 9.21135 18.0973 9.36397C18.1012 9.96313 18.0973 17.525 18.0934 18.1398Z" fill="#5156BE"/>
</svg>
