<svg width="16" height="16" viewBox="0 0 16 16" fill="none" xmlns="http://www.w3.org/2000/svg">
  <path fill-rule="evenodd" clip-rule="evenodd" d="M8 0.666626C4.31802 0.666626 1.33333 3.65132 1.33333 7.3333C1.33333 9.76329 2.82133 11.8046 4.90602 12.8236L8 15.6666L11.094 12.8236C13.1787 11.8046 14.6667 9.76329 14.6667 7.3333C14.6667 3.65132 11.682 0.666626 8 0.666626ZM8 9.66663C7.084 9.66663 6.33333 8.91663 6.33333 7.99997C6.33333 7.0833 7.084 6.3333 8 6.3333C8.91667 6.3333 9.66667 7.0833 9.66667 7.99997C9.66667 8.91663 8.91667 9.66663 8 9.66663ZM8 2.66663C10.396 2.66663 12.3333 4.60396 12.3333 7.3333C12.3333 8.78663 11.472 10.122 10.2113 10.822L8 13.101L5.78868 10.822C4.52802 10.122 3.66668 8.78663 3.66668 7.3333C3.66668 4.60396 5.60402 2.66663 8 2.66663Z" fill="#545A6D"/>
</svg>
