<svg width="38" height="38" viewBox="0 0 38 38" fill="none" xmlns="http://www.w3.org/2000/svg">
<g clip-path="url(#clip0_702_329)">
<path d="M38 19C38 8.50659 29.4934 0 19 0C8.50659 0 0 8.50659 0 19C0 29.4934 8.50659 38 19 38C29.4934 38 38 29.4934 38 19Z" fill="#5156BE" fill-opacity="0.247059"/>
<path fill-rule="evenodd" clip-rule="evenodd" d="M23.4444 19.8889C21.4818 19.8889 19.8889 21.4818 19.8889 23.4444C19.8889 25.4071 21.4818 27 23.4444 27C25.4071 27 27 25.4071 27 23.4444C27 21.4818 25.4071 19.8889 23.4444 19.8889ZM12.5173 26.7396L26.7396 12.5173C27.0862 12.1707 27.0862 11.6071 26.7396 11.2604C26.3929 10.9138 25.8293 10.9138 25.4827 11.2604L11.2604 25.4827C10.9138 25.8293 10.9138 26.3929 11.2604 26.7396C11.6071 27.0862 12.1707 27.0862 12.5173 26.7396ZM23.4444 21.6667C24.4258 21.6667 25.2222 22.4631 25.2222 23.4444C25.2222 24.4258 24.4258 25.2222 23.4444 25.2222C22.4631 25.2222 21.6667 24.4258 21.6667 23.4444C21.6667 22.4631 22.4631 21.6667 23.4444 21.6667ZM14.5556 11C12.5929 11 11 12.5929 11 14.5556C11 16.5182 12.5929 18.1111 14.5556 18.1111C16.5182 18.1111 18.1111 16.5182 18.1111 14.5556C18.1111 12.5929 16.5182 11 14.5556 11ZM14.5556 12.7778C15.5369 12.7778 16.3333 13.5742 16.3333 14.5556C16.3333 15.5369 15.5369 16.3333 14.5556 16.3333C13.5742 16.3333 12.7778 15.5369 12.7778 14.5556C12.7778 13.5742 13.5742 12.7778 14.5556 12.7778Z" fill="#5156BE"/>
</g>
<defs>
<clipPath id="clip0_702_329">
<rect width="38" height="38" fill="white"/>
</clipPath>
</defs>
</svg>
