<svg width="24" height="24" viewBox="0 0 24 24" fill="none" xmlns="http://www.w3.org/2000/svg">
<path d="M12 2C10.343 2 9 3.343 9 5C9 6.657 10.343 8 12 8C13.657 8 15 6.657 15 5C15 3.343 13.657 2 12 2ZM19 9C18.7348 9 18.4804 9.10536 18.2929 9.29289C18.1054 9.48043 18 9.73478 18 10V12H6V10C6 9.73478 5.89464 9.48043 5.70711 9.29289C5.51957 9.10536 5.26522 9 5 9C4.73478 9 4.48043 9.10536 4.29289 9.29289C4.10536 9.48043 4 9.73478 4 10V12H2V14H4V20C4 20.2652 4.10536 20.5196 4.29289 20.7071C4.48043 20.8946 4.73478 21 5 21H19C19.2652 21 19.5196 20.8946 19.7071 20.7071C19.8946 20.5196 20 20.2652 20 20V14H22V12H20V10C20 9.73478 19.8946 9.48043 19.7071 9.29289C19.5196 9.10536 19.2652 9 19 9ZM6 14H18V18H6V14Z" fill="#545A6D"/>
</svg>
